<svg width="23" height="23" viewBox="0 0 23 23" fill="none" xmlns="http://www.w3.org/2000/svg">
<path d="M11.7695 13.417C17.81 13.417 22.707 15.7022 22.707 18.5212V22.167H0.832031V18.5212C0.832031 15.7022 5.72912 13.417 11.7695 13.417ZM21.2487 18.5212C21.2487 16.5087 17.005 14.8753 11.7695 14.8753C6.53412 14.8753 2.29036 16.5087 2.29036 18.5212V20.7087H21.2487V18.5212ZM11.7695 0.291992C13.1232 0.291992 14.4215 0.829751 15.3787 1.78697C16.3359 2.74418 16.8737 4.04245 16.8737 5.39616C16.8737 6.74987 16.3359 8.04813 15.3787 9.00535C14.4215 9.96257 13.1232 10.5003 11.7695 10.5003C10.4158 10.5003 9.11756 9.96257 8.16034 9.00535C7.20312 8.04813 6.66537 6.74987 6.66537 5.39616C6.66537 4.04245 7.20312 2.74418 8.16034 1.78697C9.11756 0.829751 10.4158 0.291992 11.7695 0.291992ZM11.7695 1.75033C10.8026 1.75033 9.87527 2.13444 9.19154 2.81817C8.50781 3.50189 8.1237 4.42922 8.1237 5.39616C8.1237 6.36309 8.50781 7.29043 9.19154 7.97415C9.87527 8.65788 10.8026 9.04199 11.7695 9.04199C12.7365 9.04199 13.6638 8.65788 14.3475 7.97415C15.0313 7.29043 15.4154 6.36309 15.4154 5.39616C15.4154 4.42922 15.0313 3.50189 14.3475 2.81817C13.6638 2.13444 12.7365 1.75033 11.7695 1.75033Z" fill="white"/>
</svg>
