<svg width="34" height="34" viewBox="0 0 34 34" fill="none" xmlns="http://www.w3.org/2000/svg">
<path d="M16.292 19.8333C22.1598 19.8333 26.917 22.0532 26.917 24.7916V28.3333H5.66699V24.7916C5.66699 22.0532 10.4242 19.8333 16.292 19.8333ZM25.5003 24.7916C25.5003 22.8366 21.3778 21.2499 16.292 21.2499C11.2062 21.2499 7.08366 22.8366 7.08366 24.7916V26.9166H25.5003V24.7916ZM16.292 7.08325C17.607 7.08325 18.8682 7.60565 19.7981 8.53551C20.7279 9.46538 21.2503 10.7266 21.2503 12.0416C21.2503 13.3566 20.7279 14.6178 19.7981 15.5477C18.8682 16.4775 17.607 16.9999 16.292 16.9999C14.977 16.9999 13.7158 16.4775 12.7859 15.5477C11.8561 14.6178 11.3337 13.3566 11.3337 12.0416C11.3337 10.7266 11.8561 9.46538 12.7859 8.53551C13.7158 7.60565 14.977 7.08325 16.292 7.08325ZM16.292 8.49992C15.3527 8.49992 14.4518 8.87306 13.7877 9.53725C13.1235 10.2014 12.7503 11.1023 12.7503 12.0416C12.7503 12.9809 13.1235 13.8817 13.7877 14.5459C14.4518 15.2101 15.3527 15.5833 16.292 15.5833C17.2313 15.5833 18.1321 15.2101 18.7963 14.5459C19.4605 13.8817 19.8337 12.9809 19.8337 12.0416C19.8337 11.1023 19.4605 10.2014 18.7963 9.53725C18.1321 8.87306 17.2313 8.49992 16.292 8.49992Z" fill="white"/>
</svg>
