<svg width="24" height="24" viewBox="0 0 24 24" fill="none" xmlns="http://www.w3.org/2000/svg">
<g clip-path="url(#clip0)">
<path d="M23.6246 4.93949C23.3027 4.54115 22.8242 4.31273 22.3119 4.31273H4.0189L3.85554 3.14199C3.73985 2.31296 3.02136 1.68774 2.18422 1.68774H0.749996C0.335811 1.68774 0 2.02355 0 2.43774C0 2.85193 0.335811 3.18774 0.749996 3.18774H2.18422C2.27722 3.18774 2.3571 3.2572 2.36989 3.34931L4.39436 17.8584C4.51005 18.6875 5.22855 19.3126 6.06568 19.3126H6.87891C6.79566 19.5474 6.74991 19.7997 6.74991 20.0626C6.74991 21.3033 7.75927 22.3126 8.9999 22.3126C10.2405 22.3126 11.2499 21.3033 11.2499 20.0626C11.2499 19.7997 11.2041 19.5474 11.1209 19.3126H15.1289C15.0456 19.5474 14.9999 19.7997 14.9999 20.0626C14.9999 21.3033 16.0092 22.3126 17.2499 22.3126C18.4905 22.3126 19.4998 21.3033 19.4998 20.0626C19.4998 19.7997 19.4541 19.5474 19.3708 19.3126H20.9999C21.4141 19.3126 21.7499 18.9768 21.7499 18.5626C21.7499 18.1485 21.4141 17.8127 20.9999 17.8127H6.06573C5.97273 17.8127 5.89286 17.7432 5.88006 17.6511L5.69331 16.3127H20.4636C21.2538 16.3127 21.9478 15.7518 22.1139 14.9787L23.9621 6.35389C24.0695 5.85322 23.9465 5.33769 23.6246 4.93949ZM9.74994 20.0626C9.74994 20.4762 9.41348 20.8126 8.99995 20.8126C8.58642 20.8126 8.24995 20.4762 8.24995 20.0626C8.24995 19.6491 8.58642 19.3126 8.99995 19.3126C9.41348 19.3126 9.74994 19.6491 9.74994 20.0626ZM17.9999 20.0626C17.9999 20.4762 17.6634 20.8126 17.2499 20.8126C16.8364 20.8126 16.4999 20.4762 16.4999 20.0626C16.4999 19.6491 16.8364 19.3126 17.2499 19.3126C17.6634 19.3126 17.9999 19.6491 17.9999 20.0626ZM22.4954 6.03945L20.6472 14.6641C20.6288 14.7501 20.5515 14.8126 20.4636 14.8126H5.48397L4.22819 5.81267H22.3119C22.3861 5.81267 22.4323 5.85055 22.458 5.88233C22.4836 5.91406 22.5109 5.96708 22.4954 6.03945Z" fill="white"/>
</g>
<defs>
<clipPath id="clip0">
<rect width="24" height="24" fill="white"/>
</clipPath>
</defs>
</svg>
