<svg width="25" height="21" viewBox="0 0 25 21" fill="none" xmlns="http://www.w3.org/2000/svg">
<path d="M21.6586 2.80203C21.1278 2.26974 20.4976 1.8475 19.8039 1.55941C19.1102 1.27133 18.3667 1.12305 17.6158 1.12305C16.8649 1.12305 16.1214 1.27133 15.4277 1.55941C14.734 1.8475 14.1038 2.26974 13.573 2.80203L12.4713 3.9062L11.3697 2.80203C10.2974 1.72735 8.84318 1.1236 7.32682 1.1236C5.81046 1.1236 4.3562 1.72735 3.28398 2.80203C2.21175 3.87671 1.60938 5.33429 1.60938 6.85411C1.60937 8.37394 2.21175 9.83152 3.28398 10.9062L4.38562 12.0104L12.4713 20.1145L20.557 12.0104L21.6586 10.9062C22.1897 10.3742 22.611 9.74246 22.8984 9.04719C23.1859 8.35192 23.3338 7.60671 23.3338 6.85411C23.3338 6.10152 23.1859 5.35631 22.8984 4.66104C22.611 3.96577 22.1897 3.33407 21.6586 2.80203V2.80203Z" stroke="white" stroke-width="1.5" stroke-linecap="round" stroke-linejoin="round"/>
</svg>
