<svg width="6" height="18" viewBox="0 0 6 18" fill="none" xmlns="http://www.w3.org/2000/svg">
<path d="M3.85693 0H2.14265C1.43259 0 0.856934 0.575657 0.856934 1.28571V3C0.856934 3.71006 1.43259 4.28571 2.14265 4.28571H3.85693C4.56699 4.28571 5.14265 3.71006 5.14265 3V1.28571C5.14265 0.575657 4.56699 0 3.85693 0Z" fill="#828282"/>
<path d="M3.85693 6.85742H2.14265C1.43259 6.85742 0.856934 7.43308 0.856934 8.14314V9.85742C0.856934 10.5675 1.43259 11.1431 2.14265 11.1431H3.85693C4.56699 11.1431 5.14265 10.5675 5.14265 9.85742V8.14314C5.14265 7.43308 4.56699 6.85742 3.85693 6.85742Z" fill="#828282"/>
<path d="M3.85693 13.7148H2.14265C1.43259 13.7148 0.856934 14.2905 0.856934 15.0006V16.7148C0.856934 17.4249 1.43259 18.0006 2.14265 18.0006H3.85693C4.56699 18.0006 5.14265 17.4249 5.14265 16.7148V15.0006C5.14265 14.2905 4.56699 13.7148 3.85693 13.7148Z" fill="#828282"/>
</svg>
