<svg width="18" height="18" viewBox="0 0 18 18" fill="none" xmlns="http://www.w3.org/2000/svg">
<path d="M9.85693 0H8.14265C7.43259 0 6.85693 0.575657 6.85693 1.28571V3C6.85693 3.71006 7.43259 4.28571 8.14265 4.28571H9.85693C10.567 4.28571 11.1426 3.71006 11.1426 3V1.28571C11.1426 0.575657 10.567 0 9.85693 0Z" fill="#828282"/>
<path d="M9.85693 6.85742H8.14265C7.43259 6.85742 6.85693 7.43308 6.85693 8.14314V9.85742C6.85693 10.5675 7.43259 11.1431 8.14265 11.1431H9.85693C10.567 11.1431 11.1426 10.5675 11.1426 9.85742V8.14314C11.1426 7.43308 10.567 6.85742 9.85693 6.85742Z" fill="#828282"/>
<path d="M9.85693 13.7148H8.14265C7.43259 13.7148 6.85693 14.2905 6.85693 15.0006V16.7148C6.85693 17.4249 7.43259 18.0006 8.14265 18.0006H9.85693C10.567 18.0006 11.1426 17.4249 11.1426 16.7148V15.0006C11.1426 14.2905 10.567 13.7148 9.85693 13.7148Z" fill="#828282"/>
</svg>
