<svg width="15" height="15" viewBox="0 0 15 15" fill="none" xmlns="http://www.w3.org/2000/svg">
<rect width="15" height="15" rx="4" fill="#F6F6F6"/>
<g clip-path="url(#clip0)">
<path d="M7.11353 7.50074L4.08033 4.46753C3.97354 4.36074 3.97354 4.1876 4.08033 4.08083C4.18712 3.97405 4.36026 3.97403 4.46704 4.08083L7.50025 7.11403L10.5334 4.08083C10.6402 3.97403 10.8134 3.97403 10.9202 4.08083C11.0269 4.18762 11.0269 4.36076 10.9202 4.46753L7.88696 7.50073L10.9202 10.5339C11.0269 10.6407 11.0269 10.8139 10.9202 10.9206C10.8668 10.974 10.7968 11.0007 10.7268 11.0007C10.6568 11.0007 10.5868 10.974 10.5334 10.9206L7.50025 7.88745L4.46705 10.9206C4.41366 10.974 4.34368 11.0007 4.27369 11.0007C4.2037 11.0007 4.13373 10.974 4.08033 10.9206C3.97354 10.8139 3.97354 10.6407 4.08033 10.5339L7.11353 7.50074Z" fill="black"/>
</g>
<defs>
<clipPath id="clip0">
<rect width="7" height="7" fill="white" transform="matrix(-1 0 0 1 11 4)"/>
</clipPath>
</defs>
</svg>
