<svg width="18" height="18" viewBox="0 0 18 18" fill="none" xmlns="http://www.w3.org/2000/svg">
<path d="M8.2801 12.9596C5.6881 12.9596 3.6001 10.8716 3.6001 8.27961C3.6001 5.68761 5.6881 3.59961 8.2801 3.59961C10.8721 3.59961 12.9601 5.68761 12.9601 8.27961C12.9601 10.8716 10.8721 12.9596 8.2801 12.9596ZM8.2801 4.31961C6.0841 4.31961 4.3201 6.08361 4.3201 8.27961C4.3201 10.4756 6.0841 12.2396 8.2801 12.2396C10.4761 12.2396 12.2401 10.4756 12.2401 8.27961C12.2401 6.08361 10.4761 4.31961 8.2801 4.31961Z" fill="#828282"/>
<path d="M11.7654 11.2559L14.9982 14.4887L14.4891 14.9977L11.2563 11.7649L11.7654 11.2559Z" fill="#828282"/>
</svg>
